<svg width="128" height="128" viewBox="0 0 128 128" fill="none" xmlns="http://www.w3.org/2000/svg">
<path d="M11.896 30.929C11.896 20.4171 20.4176 11.8955 30.9295 11.8955H47.5837V16.6539H30.9295C23.0455 16.6539 16.6544 23.045 16.6544 30.929V47.5832H11.896V30.929Z" fill="black"/>
<path d="M116.58 30.929C116.58 20.4171 108.058 11.8955 97.5466 11.8955H80.8923V16.6539H97.5466C105.43 16.6539 111.822 23.045 111.822 30.929V47.5832H116.58V30.929Z" fill="black"/>
<path d="M11.896 97.5461C11.896 108.058 20.4176 116.58 30.9295 116.58H47.5837V111.821H30.9295C23.0455 111.821 16.6544 105.43 16.6544 97.5461V80.8918H11.896V97.5461Z" fill="black"/>
<path d="M116.58 97.5461C116.58 108.058 108.058 116.58 97.5466 116.58H80.8923V111.821H97.5466C105.43 111.821 111.822 105.43 111.822 97.5461V80.8918H116.58V97.5461Z" fill="black"/>
<path d="M82.3986 42.4498L41.5426 64L82.3986 85.5502L81.2889 87.6543L37.9878 64.8141V63.1859L81.2889 40.3457L82.3986 42.4498Z" fill="#2B2B2B"/>
<circle cx="38.5426" cy="64.2374" r="9.51673" fill="black"/>
<circle cx="81.8438" cy="41.3976" r="7.61338" fill="#E8D85B"/>
<circle cx="81.8439" cy="86.6027" r="9.51673" fill="black"/>
</svg>
